<svg xmlns="http://www.w3.org/2000/svg" viewBox="0 0 640 954" width="640" height="954" font-family="system-ui, -apple-system, Segoe UI, sans-serif" role="img" aria-label="Splat softness (narrower)">
<style>
svg{--bg:#fcfcfb;--ink:#0b0b0b;--ink2:#52514e;--grid:#e4e3df;--axis:#a3a29c}
.s0{stroke:#2a78d6;fill:none}.m0{fill:#2a78d6;stroke:var(--bg);stroke-width:1.5}.s1{stroke:#eb6834;fill:none}.m1{fill:#eb6834;stroke:var(--bg);stroke-width:1.5}.s2{stroke:#1baf7a;fill:none}.m2{fill:#1baf7a;stroke:var(--bg);stroke-width:1.5}.s3{stroke:#eda100;fill:none}.m3{fill:#eda100;stroke:var(--bg);stroke-width:1.5}.s4{stroke:#e87ba4;fill:none}.m4{fill:#e87ba4;stroke:var(--bg);stroke-width:1.5}
@media (prefers-color-scheme: dark){svg{--bg:#1a1a19;--ink:#ffffff;--ink2:#c3c2b7;--grid:#34332f;--axis:#6b6a64}.s0{stroke:#3987e5;fill:none}.m0{fill:#3987e5;stroke:var(--bg);stroke-width:1.5}.s1{stroke:#d95926;fill:none}.m1{fill:#d95926;stroke:var(--bg);stroke-width:1.5}.s2{stroke:#199e70;fill:none}.m2{fill:#199e70;stroke:var(--bg);stroke-width:1.5}.s3{stroke:#c98500;fill:none}.m3{fill:#c98500;stroke:var(--bg);stroke-width:1.5}.s4{stroke:#d55181;fill:none}.m4{fill:#d55181;stroke:var(--bg);stroke-width:1.5}}
.bg{fill:var(--bg)}.t{fill:var(--ink);font-size:20px;font-weight:600}.st{fill:var(--ink2);font-size:15px}
.pt{fill:var(--ink);font-size:16px;font-weight:600}.ax{fill:var(--ink2);font-size:14px}.lb{font-size:14px;font-weight:600;fill:var(--ink)}
.g{stroke:var(--grid);stroke-width:1}.a{stroke:var(--axis);stroke-width:1}
path.s0,path.s1,path.s2,path.s3,path.s4{stroke-width:2.25;stroke-linejoin:round;stroke-linecap:round}
</style>
<rect class="bg" x="0" y="0" width="640" height="954"/>
<text class="t" x="16" y="30">Splat softness (narrower)</text>
<text class="st" x="16" y="54">Share of “phone” captures read exactly; three texts pooled, 9 per point</text>
<text class="pt" x="64" y="86">jsQR</text>
<line class="g" x1="64" x2="548" y1="316" y2="316"/>
<text class="ax" x="56" y="321" text-anchor="end">0%</text>
<line class="g" x1="64" x2="548" y1="261" y2="261"/>
<text class="ax" x="56" y="266" text-anchor="end">25%</text>
<line class="g" x1="64" x2="548" y1="206" y2="206"/>
<text class="ax" x="56" y="211" text-anchor="end">50%</text>
<line class="g" x1="64" x2="548" y1="151" y2="151"/>
<text class="ax" x="56" y="156" text-anchor="end">75%</text>
<line class="g" x1="64" x2="548" y1="96" y2="96"/>
<text class="ax" x="56" y="101" text-anchor="end">100%</text>
<line class="a" x1="64" x2="548" y1="316" y2="316"/>
<text class="ax" x="112.4" y="336" text-anchor="middle">0.1</text>
<text class="ax" x="209.20000000000002" y="336" text-anchor="middle">0.2</text>
<text class="ax" x="306" y="336" text-anchor="middle">0.3</text>
<text class="ax" x="402.8" y="336" text-anchor="middle">0.4</text>
<text class="ax" x="499.6" y="336" text-anchor="middle">0.5</text>
<text class="ax" x="306" y="356" text-anchor="middle">softness (splat spread ÷ spacing)</text>
<path class="s0" d="M548.0 96.0L499.6 96.0L451.2 96.0L402.8 96.0L354.4 96.0L306.0 96.0L257.6 96.0L209.2 96.0L160.8 96.0L112.4 96.0L64.0 96.0"/>
<circle class="m0" cx="548" cy="96" r="4.5"/>
<circle class="m0" cx="499.6" cy="96" r="4.5"/>
<circle class="m0" cx="451.2" cy="96" r="4.5"/>
<circle class="m0" cx="402.8" cy="96" r="4.5"/>
<circle class="m0" cx="354.4" cy="96" r="4.5"/>
<circle class="m0" cx="306" cy="96" r="4.5"/>
<circle class="m0" cx="257.6" cy="96" r="4.5"/>
<circle class="m0" cx="209.2" cy="96" r="4.5"/>
<circle class="m0" cx="160.8" cy="96" r="4.5"/>
<circle class="m0" cx="112.4" cy="96" r="4.5"/>
<circle class="m0" cx="64" cy="96" r="4.5"/>
<path class="s1" d="M548.0 169.3L499.6 120.4L451.2 120.4L402.8 96.0L354.4 96.0L306.0 96.0L257.6 96.0L209.2 96.0L160.8 96.0L112.4 96.0L64.0 120.4"/>
<rect class="m1" x="543.5" y="164.8" width="9" height="9" rx="1"/>
<rect class="m1" x="495.1" y="115.9" width="9" height="9" rx="1"/>
<rect class="m1" x="446.7" y="115.9" width="9" height="9" rx="1"/>
<rect class="m1" x="398.3" y="91.5" width="9" height="9" rx="1"/>
<rect class="m1" x="349.9" y="91.5" width="9" height="9" rx="1"/>
<rect class="m1" x="301.5" y="91.5" width="9" height="9" rx="1"/>
<rect class="m1" x="253.10000000000002" y="91.5" width="9" height="9" rx="1"/>
<rect class="m1" x="204.7" y="91.5" width="9" height="9" rx="1"/>
<rect class="m1" x="156.3" y="91.5" width="9" height="9" rx="1"/>
<rect class="m1" x="107.9" y="91.5" width="9" height="9" rx="1"/>
<rect class="m1" x="59.5" y="115.9" width="9" height="9" rx="1"/>
<path class="s2" d="M548.0 169.3L499.6 169.3L451.2 144.8L402.8 96.0L354.4 96.0L306.0 96.0L257.6 96.0L209.2 96.0L160.8 96.0L112.4 120.4L64.0 144.8"/>
<path class="m2" d="M548 163.8L553.5 173.8L542.5 173.8Z"/>
<path class="m2" d="M499.6 163.8L505.1 173.8L494.1 173.8Z"/>
<path class="m2" d="M451.2 139.3L456.7 149.3L445.7 149.3Z"/>
<path class="m2" d="M402.8 90.5L408.3 100.5L397.3 100.5Z"/>
<path class="m2" d="M354.4 90.5L359.9 100.5L348.9 100.5Z"/>
<path class="m2" d="M306 90.5L311.5 100.5L300.5 100.5Z"/>
<path class="m2" d="M257.6 90.5L263.1 100.5L252.10000000000002 100.5Z"/>
<path class="m2" d="M209.2 90.5L214.7 100.5L203.7 100.5Z"/>
<path class="m2" d="M160.8 90.5L166.3 100.5L155.3 100.5Z"/>
<path class="m2" d="M112.4 114.9L117.9 124.9L106.9 124.9Z"/>
<path class="m2" d="M64 139.3L69.5 149.3L58.5 149.3Z"/>
<path class="s3" d="M548.0 169.3L499.6 169.3L451.2 169.3L402.8 120.4L354.4 96.0L306.0 96.0L257.6 96.0L209.2 96.0L160.8 96.0L112.4 96.0L64.0 96.0"/>
<path class="m3" d="M548 163.8L553.5 169.3L548 174.8L542.5 169.3Z"/>
<path class="m3" d="M499.6 163.8L505.1 169.3L499.6 174.8L494.1 169.3Z"/>
<path class="m3" d="M451.2 163.8L456.7 169.3L451.2 174.8L445.7 169.3Z"/>
<path class="m3" d="M402.8 114.9L408.3 120.4L402.8 125.9L397.3 120.4Z"/>
<path class="m3" d="M354.4 90.5L359.9 96L354.4 101.5L348.9 96Z"/>
<path class="m3" d="M306 90.5L311.5 96L306 101.5L300.5 96Z"/>
<path class="m3" d="M257.6 90.5L263.1 96L257.6 101.5L252.10000000000002 96Z"/>
<path class="m3" d="M209.2 90.5L214.7 96L209.2 101.5L203.7 96Z"/>
<path class="m3" d="M160.8 90.5L166.3 96L160.8 101.5L155.3 96Z"/>
<path class="m3" d="M112.4 90.5L117.9 96L112.4 101.5L106.9 96Z"/>
<path class="m3" d="M64 90.5L69.5 96L64 101.5L58.5 96Z"/>
<circle class="m0" cx="563" cy="96" r="4.5"/>
<text class="lb" x="573" y="101">Level L</text>
<rect class="m1" x="558.5" y="164.76" width="9" height="9" rx="1"/>
<text class="lb" x="573" y="174.26">Level M</text>
<path class="m2" d="M563 180.76L568.5 190.76L557.5 190.76Z"/>
<text class="lb" x="573" y="191.26">Level Q</text>
<path class="m3" d="M563 197.76L568.5 203.26L563 208.76L557.5 203.26Z"/>
<text class="lb" x="573" y="208.26">Level H</text>
<text class="pt" x="64" y="376">zxing-js</text>
<line class="g" x1="64" x2="548" y1="606" y2="606"/>
<text class="ax" x="56" y="611" text-anchor="end">0%</text>
<line class="g" x1="64" x2="548" y1="551" y2="551"/>
<text class="ax" x="56" y="556" text-anchor="end">25%</text>
<line class="g" x1="64" x2="548" y1="496" y2="496"/>
<text class="ax" x="56" y="501" text-anchor="end">50%</text>
<line class="g" x1="64" x2="548" y1="441" y2="441"/>
<text class="ax" x="56" y="446" text-anchor="end">75%</text>
<line class="g" x1="64" x2="548" y1="386" y2="386"/>
<text class="ax" x="56" y="391" text-anchor="end">100%</text>
<line class="a" x1="64" x2="548" y1="606" y2="606"/>
<text class="ax" x="112.4" y="626" text-anchor="middle">0.1</text>
<text class="ax" x="209.20000000000002" y="626" text-anchor="middle">0.2</text>
<text class="ax" x="306" y="626" text-anchor="middle">0.3</text>
<text class="ax" x="402.8" y="626" text-anchor="middle">0.4</text>
<text class="ax" x="499.6" y="626" text-anchor="middle">0.5</text>
<text class="ax" x="306" y="646" text-anchor="middle">softness (splat spread ÷ spacing)</text>
<path class="s0" d="M548.0 386.0L499.6 386.0L451.2 386.0L402.8 386.0L354.4 386.0L306.0 386.0L257.6 386.0L209.2 386.0L160.8 410.4L112.4 459.3L64.0 508.3"/>
<circle class="m0" cx="548" cy="386" r="4.5"/>
<circle class="m0" cx="499.6" cy="386" r="4.5"/>
<circle class="m0" cx="451.2" cy="386" r="4.5"/>
<circle class="m0" cx="402.8" cy="386" r="4.5"/>
<circle class="m0" cx="354.4" cy="386" r="4.5"/>
<circle class="m0" cx="306" cy="386" r="4.5"/>
<circle class="m0" cx="257.6" cy="386" r="4.5"/>
<circle class="m0" cx="209.2" cy="386" r="4.5"/>
<circle class="m0" cx="160.8" cy="410.4" r="4.5"/>
<circle class="m0" cx="112.4" cy="459.3" r="4.5"/>
<circle class="m0" cx="64" cy="508.3" r="4.5"/>
<path class="s1" d="M548.0 459.3L499.6 410.4L451.2 410.4L402.8 386.0L354.4 386.0L306.0 386.0L257.6 386.0L209.2 410.4L160.8 434.8L112.4 483.7L64.0 532.7"/>
<rect class="m1" x="543.5" y="454.8" width="9" height="9" rx="1"/>
<rect class="m1" x="495.1" y="405.9" width="9" height="9" rx="1"/>
<rect class="m1" x="446.7" y="405.9" width="9" height="9" rx="1"/>
<rect class="m1" x="398.3" y="381.5" width="9" height="9" rx="1"/>
<rect class="m1" x="349.9" y="381.5" width="9" height="9" rx="1"/>
<rect class="m1" x="301.5" y="381.5" width="9" height="9" rx="1"/>
<rect class="m1" x="253.10000000000002" y="381.5" width="9" height="9" rx="1"/>
<rect class="m1" x="204.7" y="405.9" width="9" height="9" rx="1"/>
<rect class="m1" x="156.3" y="430.3" width="9" height="9" rx="1"/>
<rect class="m1" x="107.9" y="479.2" width="9" height="9" rx="1"/>
<rect class="m1" x="59.5" y="528.2" width="9" height="9" rx="1"/>
<path class="s2" d="M548.0 483.7L499.6 483.7L451.2 459.3L402.8 410.4L354.4 410.4L306.0 459.3L257.6 410.4L209.2 483.7L160.8 508.3L112.4 508.3L64.0 532.7"/>
<path class="m2" d="M548 478.2L553.5 488.2L542.5 488.2Z"/>
<path class="m2" d="M499.6 478.2L505.1 488.2L494.1 488.2Z"/>
<path class="m2" d="M451.2 453.8L456.7 463.8L445.7 463.8Z"/>
<path class="m2" d="M402.8 404.9L408.3 414.9L397.3 414.9Z"/>
<path class="m2" d="M354.4 404.9L359.9 414.9L348.9 414.9Z"/>
<path class="m2" d="M306 453.8L311.5 463.8L300.5 463.8Z"/>
<path class="m2" d="M257.6 404.9L263.1 414.9L252.10000000000002 414.9Z"/>
<path class="m2" d="M209.2 478.2L214.7 488.2L203.7 488.2Z"/>
<path class="m2" d="M160.8 502.8L166.3 512.8L155.3 512.8Z"/>
<path class="m2" d="M112.4 502.8L117.9 512.8L106.9 512.8Z"/>
<path class="m2" d="M64 527.2L69.5 537.2L58.5 537.2Z"/>
<path class="s3" d="M548.0 459.3L499.6 459.3L451.2 459.3L402.8 434.8L354.4 386.0L306.0 386.0L257.6 386.0L209.2 386.0L160.8 386.0L112.4 386.0L64.0 508.3"/>
<path class="m3" d="M548 453.8L553.5 459.3L548 464.8L542.5 459.3Z"/>
<path class="m3" d="M499.6 453.8L505.1 459.3L499.6 464.8L494.1 459.3Z"/>
<path class="m3" d="M451.2 453.8L456.7 459.3L451.2 464.8L445.7 459.3Z"/>
<path class="m3" d="M402.8 429.3L408.3 434.8L402.8 440.3L397.3 434.8Z"/>
<path class="m3" d="M354.4 380.5L359.9 386L354.4 391.5L348.9 386Z"/>
<path class="m3" d="M306 380.5L311.5 386L306 391.5L300.5 386Z"/>
<path class="m3" d="M257.6 380.5L263.1 386L257.6 391.5L252.10000000000002 386Z"/>
<path class="m3" d="M209.2 380.5L214.7 386L209.2 391.5L203.7 386Z"/>
<path class="m3" d="M160.8 380.5L166.3 386L160.8 391.5L155.3 386Z"/>
<path class="m3" d="M112.4 380.5L117.9 386L112.4 391.5L106.9 386Z"/>
<path class="m3" d="M64 502.8L69.5 508.3L64 513.8L58.5 508.3Z"/>
<circle class="m0" cx="563" cy="386" r="4.5"/>
<text class="lb" x="573" y="391">Level L</text>
<rect class="m1" x="558.5" y="454.76" width="9" height="9" rx="1"/>
<text class="lb" x="573" y="464.26">Level M</text>
<path class="m3" d="M563 470.76L568.5 476.26L563 481.76L557.5 476.26Z"/>
<text class="lb" x="573" y="481.26">Level H</text>
<path class="m2" d="M563 487.76L568.5 497.76L557.5 497.76Z"/>
<text class="lb" x="573" y="498.26">Level Q</text>
<text class="pt" x="64" y="666">zxing-cpp</text>
<line class="g" x1="64" x2="548" y1="896" y2="896"/>
<text class="ax" x="56" y="901" text-anchor="end">0%</text>
<line class="g" x1="64" x2="548" y1="841" y2="841"/>
<text class="ax" x="56" y="846" text-anchor="end">25%</text>
<line class="g" x1="64" x2="548" y1="786" y2="786"/>
<text class="ax" x="56" y="791" text-anchor="end">50%</text>
<line class="g" x1="64" x2="548" y1="731" y2="731"/>
<text class="ax" x="56" y="736" text-anchor="end">75%</text>
<line class="g" x1="64" x2="548" y1="676" y2="676"/>
<text class="ax" x="56" y="681" text-anchor="end">100%</text>
<line class="a" x1="64" x2="548" y1="896" y2="896"/>
<text class="ax" x="112.4" y="916" text-anchor="middle">0.1</text>
<text class="ax" x="209.20000000000002" y="916" text-anchor="middle">0.2</text>
<text class="ax" x="306" y="916" text-anchor="middle">0.3</text>
<text class="ax" x="402.8" y="916" text-anchor="middle">0.4</text>
<text class="ax" x="499.6" y="916" text-anchor="middle">0.5</text>
<text class="ax" x="306" y="936" text-anchor="middle">softness (splat spread ÷ spacing)</text>
<path class="s0" d="M548.0 676.0L499.6 676.0L451.2 676.0L402.8 676.0L354.4 676.0L306.0 676.0L257.6 676.0L209.2 676.0L160.8 676.0L112.4 676.0L64.0 676.0"/>
<circle class="m0" cx="548" cy="676" r="4.5"/>
<circle class="m0" cx="499.6" cy="676" r="4.5"/>
<circle class="m0" cx="451.2" cy="676" r="4.5"/>
<circle class="m0" cx="402.8" cy="676" r="4.5"/>
<circle class="m0" cx="354.4" cy="676" r="4.5"/>
<circle class="m0" cx="306" cy="676" r="4.5"/>
<circle class="m0" cx="257.6" cy="676" r="4.5"/>
<circle class="m0" cx="209.2" cy="676" r="4.5"/>
<circle class="m0" cx="160.8" cy="676" r="4.5"/>
<circle class="m0" cx="112.4" cy="676" r="4.5"/>
<circle class="m0" cx="64" cy="676" r="4.5"/>
<path class="s1" d="M548.0 676.0L499.6 676.0L451.2 676.0L402.8 676.0L354.4 676.0L306.0 676.0L257.6 676.0L209.2 676.0L160.8 676.0L112.4 676.0L64.0 676.0"/>
<rect class="m1" x="543.5" y="671.5" width="9" height="9" rx="1"/>
<rect class="m1" x="495.1" y="671.5" width="9" height="9" rx="1"/>
<rect class="m1" x="446.7" y="671.5" width="9" height="9" rx="1"/>
<rect class="m1" x="398.3" y="671.5" width="9" height="9" rx="1"/>
<rect class="m1" x="349.9" y="671.5" width="9" height="9" rx="1"/>
<rect class="m1" x="301.5" y="671.5" width="9" height="9" rx="1"/>
<rect class="m1" x="253.10000000000002" y="671.5" width="9" height="9" rx="1"/>
<rect class="m1" x="204.7" y="671.5" width="9" height="9" rx="1"/>
<rect class="m1" x="156.3" y="671.5" width="9" height="9" rx="1"/>
<rect class="m1" x="107.9" y="671.5" width="9" height="9" rx="1"/>
<rect class="m1" x="59.5" y="671.5" width="9" height="9" rx="1"/>
<path class="s2" d="M548.0 676.0L499.6 676.0L451.2 676.0L402.8 676.0L354.4 676.0L306.0 676.0L257.6 676.0L209.2 676.0L160.8 676.0L112.4 676.0L64.0 676.0"/>
<path class="m2" d="M548 670.5L553.5 680.5L542.5 680.5Z"/>
<path class="m2" d="M499.6 670.5L505.1 680.5L494.1 680.5Z"/>
<path class="m2" d="M451.2 670.5L456.7 680.5L445.7 680.5Z"/>
<path class="m2" d="M402.8 670.5L408.3 680.5L397.3 680.5Z"/>
<path class="m2" d="M354.4 670.5L359.9 680.5L348.9 680.5Z"/>
<path class="m2" d="M306 670.5L311.5 680.5L300.5 680.5Z"/>
<path class="m2" d="M257.6 670.5L263.1 680.5L252.10000000000002 680.5Z"/>
<path class="m2" d="M209.2 670.5L214.7 680.5L203.7 680.5Z"/>
<path class="m2" d="M160.8 670.5L166.3 680.5L155.3 680.5Z"/>
<path class="m2" d="M112.4 670.5L117.9 680.5L106.9 680.5Z"/>
<path class="m2" d="M64 670.5L69.5 680.5L58.5 680.5Z"/>
<path class="s3" d="M548.0 676.0L499.6 676.0L451.2 676.0L402.8 676.0L354.4 676.0L306.0 676.0L257.6 676.0L209.2 676.0L160.8 676.0L112.4 676.0L64.0 676.0"/>
<path class="m3" d="M548 670.5L553.5 676L548 681.5L542.5 676Z"/>
<path class="m3" d="M499.6 670.5L505.1 676L499.6 681.5L494.1 676Z"/>
<path class="m3" d="M451.2 670.5L456.7 676L451.2 681.5L445.7 676Z"/>
<path class="m3" d="M402.8 670.5L408.3 676L402.8 681.5L397.3 676Z"/>
<path class="m3" d="M354.4 670.5L359.9 676L354.4 681.5L348.9 676Z"/>
<path class="m3" d="M306 670.5L311.5 676L306 681.5L300.5 676Z"/>
<path class="m3" d="M257.6 670.5L263.1 676L257.6 681.5L252.10000000000002 676Z"/>
<path class="m3" d="M209.2 670.5L214.7 676L209.2 681.5L203.7 676Z"/>
<path class="m3" d="M160.8 670.5L166.3 676L160.8 681.5L155.3 676Z"/>
<path class="m3" d="M112.4 670.5L117.9 676L112.4 681.5L106.9 676Z"/>
<path class="m3" d="M64 670.5L69.5 676L64 681.5L58.5 676Z"/>
<circle class="m0" cx="563" cy="676" r="4.5"/>
<text class="lb" x="573" y="681">Level L</text>
<rect class="m1" x="558.5" y="688.5" width="9" height="9" rx="1"/>
<text class="lb" x="573" y="698">Level M</text>
<path class="m2" d="M563 704.5L568.5 714.5L557.5 714.5Z"/>
<text class="lb" x="573" y="715">Level Q</text>
<path class="m3" d="M563 721.5L568.5 727L563 732.5L557.5 727Z"/>
<text class="lb" x="573" y="732">Level H</text>
</svg>
