<svg xmlns="http://www.w3.org/2000/svg" viewBox="0 0 640 954" width="640" height="954" font-family="system-ui, -apple-system, Segoe UI, sans-serif" role="img" aria-label="Yaw, dark layer lifted 0.3 modules">
<style>
svg{--bg:#fcfcfb;--ink:#0b0b0b;--ink2:#52514e;--grid:#e4e3df;--axis:#a3a29c}
.s0{stroke:#2a78d6;fill:none}.m0{fill:#2a78d6;stroke:var(--bg);stroke-width:1.5}.s1{stroke:#eb6834;fill:none}.m1{fill:#eb6834;stroke:var(--bg);stroke-width:1.5}.s2{stroke:#1baf7a;fill:none}.m2{fill:#1baf7a;stroke:var(--bg);stroke-width:1.5}.s3{stroke:#eda100;fill:none}.m3{fill:#eda100;stroke:var(--bg);stroke-width:1.5}.s4{stroke:#e87ba4;fill:none}.m4{fill:#e87ba4;stroke:var(--bg);stroke-width:1.5}
@media (prefers-color-scheme: dark){svg{--bg:#1a1a19;--ink:#ffffff;--ink2:#c3c2b7;--grid:#34332f;--axis:#6b6a64}.s0{stroke:#3987e5;fill:none}.m0{fill:#3987e5;stroke:var(--bg);stroke-width:1.5}.s1{stroke:#d95926;fill:none}.m1{fill:#d95926;stroke:var(--bg);stroke-width:1.5}.s2{stroke:#199e70;fill:none}.m2{fill:#199e70;stroke:var(--bg);stroke-width:1.5}.s3{stroke:#c98500;fill:none}.m3{fill:#c98500;stroke:var(--bg);stroke-width:1.5}.s4{stroke:#d55181;fill:none}.m4{fill:#d55181;stroke:var(--bg);stroke-width:1.5}}
.bg{fill:var(--bg)}.t{fill:var(--ink);font-size:20px;font-weight:600}.st{fill:var(--ink2);font-size:15px}
.pt{fill:var(--ink);font-size:16px;font-weight:600}.ax{fill:var(--ink2);font-size:14px}.lb{font-size:14px;font-weight:600;fill:var(--ink)}
.g{stroke:var(--grid);stroke-width:1}.a{stroke:var(--axis);stroke-width:1}
path.s0,path.s1,path.s2,path.s3,path.s4{stroke-width:2.25;stroke-linejoin:round;stroke-linecap:round}
</style>
<rect class="bg" x="0" y="0" width="640" height="954"/>
<text class="t" x="16" y="30">Yaw, dark layer lifted 0.3 modules</text>
<text class="st" x="16" y="54">Share of “phone” captures read exactly; three texts pooled, 9 per point</text>
<text class="pt" x="64" y="86">jsQR</text>
<line class="g" x1="64" x2="548" y1="316" y2="316"/>
<text class="ax" x="56" y="321" text-anchor="end">0%</text>
<line class="g" x1="64" x2="548" y1="261" y2="261"/>
<text class="ax" x="56" y="266" text-anchor="end">25%</text>
<line class="g" x1="64" x2="548" y1="206" y2="206"/>
<text class="ax" x="56" y="211" text-anchor="end">50%</text>
<line class="g" x1="64" x2="548" y1="151" y2="151"/>
<text class="ax" x="56" y="156" text-anchor="end">75%</text>
<line class="g" x1="64" x2="548" y1="96" y2="96"/>
<text class="ax" x="56" y="101" text-anchor="end">100%</text>
<line class="a" x1="64" x2="548" y1="316" y2="316"/>
<text class="ax" x="64" y="336" text-anchor="middle">0</text>
<text class="ax" x="185" y="336" text-anchor="middle">20</text>
<text class="ax" x="306" y="336" text-anchor="middle">40</text>
<text class="ax" x="427" y="336" text-anchor="middle">60</text>
<text class="ax" x="548" y="336" text-anchor="middle">80</text>
<text class="ax" x="306" y="356" text-anchor="middle">yaw in the scene (degrees)</text>
<path class="s0" d="M64.0 144.8L94.3 169.3L124.5 120.4L154.8 169.3L185.0 169.3L215.3 144.8L245.5 120.4L275.8 169.3L306.0 120.4L336.3 169.3L366.5 193.7L396.8 242.7L427.0 316.0L457.3 316.0L487.5 316.0L517.8 316.0L548.0 316.0"/>
<circle class="m0" cx="64" cy="144.8" r="4.5"/>
<circle class="m0" cx="94.3" cy="169.3" r="4.5"/>
<circle class="m0" cx="124.5" cy="120.4" r="4.5"/>
<circle class="m0" cx="154.8" cy="169.3" r="4.5"/>
<circle class="m0" cx="185" cy="169.3" r="4.5"/>
<circle class="m0" cx="215.3" cy="144.8" r="4.5"/>
<circle class="m0" cx="245.5" cy="120.4" r="4.5"/>
<circle class="m0" cx="275.8" cy="169.3" r="4.5"/>
<circle class="m0" cx="306" cy="120.4" r="4.5"/>
<circle class="m0" cx="336.3" cy="169.3" r="4.5"/>
<circle class="m0" cx="366.5" cy="193.7" r="4.5"/>
<circle class="m0" cx="396.8" cy="242.7" r="4.5"/>
<circle class="m0" cx="427" cy="316" r="4.5"/>
<circle class="m0" cx="457.3" cy="316" r="4.5"/>
<circle class="m0" cx="487.5" cy="316" r="4.5"/>
<circle class="m0" cx="517.8" cy="316" r="4.5"/>
<circle class="m0" cx="548" cy="316" r="4.5"/>
<path class="s1" d="M64.0 144.8L94.3 169.3L124.5 169.3L154.8 169.3L185.0 169.3L215.3 169.3L245.5 120.4L275.8 218.3L306.0 144.8L336.3 169.3L366.5 169.3L396.8 267.2L427.0 316.0L457.3 316.0L487.5 316.0L517.8 316.0L548.0 316.0"/>
<rect class="m1" x="59.5" y="140.3" width="9" height="9" rx="1"/>
<rect class="m1" x="89.8" y="164.8" width="9" height="9" rx="1"/>
<rect class="m1" x="120" y="164.8" width="9" height="9" rx="1"/>
<rect class="m1" x="150.3" y="164.8" width="9" height="9" rx="1"/>
<rect class="m1" x="180.5" y="164.8" width="9" height="9" rx="1"/>
<rect class="m1" x="210.8" y="164.8" width="9" height="9" rx="1"/>
<rect class="m1" x="241" y="115.9" width="9" height="9" rx="1"/>
<rect class="m1" x="271.3" y="213.8" width="9" height="9" rx="1"/>
<rect class="m1" x="301.5" y="140.3" width="9" height="9" rx="1"/>
<rect class="m1" x="331.8" y="164.8" width="9" height="9" rx="1"/>
<rect class="m1" x="362" y="164.8" width="9" height="9" rx="1"/>
<rect class="m1" x="392.3" y="262.7" width="9" height="9" rx="1"/>
<rect class="m1" x="422.5" y="311.5" width="9" height="9" rx="1"/>
<rect class="m1" x="452.8" y="311.5" width="9" height="9" rx="1"/>
<rect class="m1" x="483" y="311.5" width="9" height="9" rx="1"/>
<rect class="m1" x="513.3" y="311.5" width="9" height="9" rx="1"/>
<rect class="m1" x="543.5" y="311.5" width="9" height="9" rx="1"/>
<path class="s2" d="M64.0 169.3L94.3 193.7L124.5 169.3L154.8 169.3L185.0 169.3L215.3 169.3L245.5 169.3L275.8 218.3L306.0 169.3L336.3 193.7L366.5 169.3L396.8 218.3L427.0 316.0L457.3 316.0L487.5 316.0L517.8 316.0L548.0 316.0"/>
<path class="m2" d="M64 163.8L69.5 173.8L58.5 173.8Z"/>
<path class="m2" d="M94.3 188.2L99.8 198.2L88.8 198.2Z"/>
<path class="m2" d="M124.5 163.8L130 173.8L119 173.8Z"/>
<path class="m2" d="M154.8 163.8L160.3 173.8L149.3 173.8Z"/>
<path class="m2" d="M185 163.8L190.5 173.8L179.5 173.8Z"/>
<path class="m2" d="M215.3 163.8L220.8 173.8L209.8 173.8Z"/>
<path class="m2" d="M245.5 163.8L251 173.8L240 173.8Z"/>
<path class="m2" d="M275.8 212.8L281.3 222.8L270.3 222.8Z"/>
<path class="m2" d="M306 163.8L311.5 173.8L300.5 173.8Z"/>
<path class="m2" d="M336.3 188.2L341.8 198.2L330.8 198.2Z"/>
<path class="m2" d="M366.5 163.8L372 173.8L361 173.8Z"/>
<path class="m2" d="M396.8 212.8L402.3 222.8L391.3 222.8Z"/>
<path class="m2" d="M427 310.5L432.5 320.5L421.5 320.5Z"/>
<path class="m2" d="M457.3 310.5L462.8 320.5L451.8 320.5Z"/>
<path class="m2" d="M487.5 310.5L493 320.5L482 320.5Z"/>
<path class="m2" d="M517.8 310.5L523.3 320.5L512.3 320.5Z"/>
<path class="m2" d="M548 310.5L553.5 320.5L542.5 320.5Z"/>
<path class="s3" d="M64.0 169.3L94.3 193.7L124.5 169.3L154.8 169.3L185.0 169.3L215.3 193.7L245.5 120.4L275.8 169.3L306.0 169.3L336.3 193.7L366.5 218.3L396.8 218.3L427.0 316.0L457.3 316.0L487.5 316.0L517.8 316.0L548.0 316.0"/>
<path class="m3" d="M64 163.8L69.5 169.3L64 174.8L58.5 169.3Z"/>
<path class="m3" d="M94.3 188.2L99.8 193.7L94.3 199.2L88.8 193.7Z"/>
<path class="m3" d="M124.5 163.8L130 169.3L124.5 174.8L119 169.3Z"/>
<path class="m3" d="M154.8 163.8L160.3 169.3L154.8 174.8L149.3 169.3Z"/>
<path class="m3" d="M185 163.8L190.5 169.3L185 174.8L179.5 169.3Z"/>
<path class="m3" d="M215.3 188.2L220.8 193.7L215.3 199.2L209.8 193.7Z"/>
<path class="m3" d="M245.5 114.9L251 120.4L245.5 125.9L240 120.4Z"/>
<path class="m3" d="M275.8 163.8L281.3 169.3L275.8 174.8L270.3 169.3Z"/>
<path class="m3" d="M306 163.8L311.5 169.3L306 174.8L300.5 169.3Z"/>
<path class="m3" d="M336.3 188.2L341.8 193.7L336.3 199.2L330.8 193.7Z"/>
<path class="m3" d="M366.5 212.8L372 218.3L366.5 223.8L361 218.3Z"/>
<path class="m3" d="M396.8 212.8L402.3 218.3L396.8 223.8L391.3 218.3Z"/>
<path class="m3" d="M427 310.5L432.5 316L427 321.5L421.5 316Z"/>
<path class="m3" d="M457.3 310.5L462.8 316L457.3 321.5L451.8 316Z"/>
<path class="m3" d="M487.5 310.5L493 316L487.5 321.5L482 316Z"/>
<path class="m3" d="M517.8 310.5L523.3 316L517.8 321.5L512.3 316Z"/>
<path class="m3" d="M548 310.5L553.5 316L548 321.5L542.5 316Z"/>
<circle class="m0" cx="563" cy="316" r="4.5"/>
<text class="lb" x="573" y="321">Level L</text>
<rect class="m1" x="558.5" y="328.5" width="9" height="9" rx="1"/>
<text class="lb" x="573" y="338">Level M</text>
<path class="m2" d="M563 344.5L568.5 354.5L557.5 354.5Z"/>
<text class="lb" x="573" y="355">Level Q</text>
<path class="m3" d="M563 361.5L568.5 367L563 372.5L557.5 367Z"/>
<text class="lb" x="573" y="372">Level H</text>
<text class="pt" x="64" y="376">zxing-js</text>
<line class="g" x1="64" x2="548" y1="606" y2="606"/>
<text class="ax" x="56" y="611" text-anchor="end">0%</text>
<line class="g" x1="64" x2="548" y1="551" y2="551"/>
<text class="ax" x="56" y="556" text-anchor="end">25%</text>
<line class="g" x1="64" x2="548" y1="496" y2="496"/>
<text class="ax" x="56" y="501" text-anchor="end">50%</text>
<line class="g" x1="64" x2="548" y1="441" y2="441"/>
<text class="ax" x="56" y="446" text-anchor="end">75%</text>
<line class="g" x1="64" x2="548" y1="386" y2="386"/>
<text class="ax" x="56" y="391" text-anchor="end">100%</text>
<line class="a" x1="64" x2="548" y1="606" y2="606"/>
<text class="ax" x="64" y="626" text-anchor="middle">0</text>
<text class="ax" x="185" y="626" text-anchor="middle">20</text>
<text class="ax" x="306" y="626" text-anchor="middle">40</text>
<text class="ax" x="427" y="626" text-anchor="middle">60</text>
<text class="ax" x="548" y="626" text-anchor="middle">80</text>
<text class="ax" x="306" y="646" text-anchor="middle">yaw in the scene (degrees)</text>
<path class="s0" d="M64.0 459.3L94.3 459.3L124.5 386.0L154.8 459.3L185.0 459.3L215.3 459.3L245.5 483.7L275.8 557.2L306.0 606.0L336.3 606.0L366.5 606.0L396.8 606.0L427.0 606.0L457.3 606.0L487.5 606.0L517.8 606.0L548.0 606.0"/>
<circle class="m0" cx="64" cy="459.3" r="4.5"/>
<circle class="m0" cx="94.3" cy="459.3" r="4.5"/>
<circle class="m0" cx="124.5" cy="386" r="4.5"/>
<circle class="m0" cx="154.8" cy="459.3" r="4.5"/>
<circle class="m0" cx="185" cy="459.3" r="4.5"/>
<circle class="m0" cx="215.3" cy="459.3" r="4.5"/>
<circle class="m0" cx="245.5" cy="483.7" r="4.5"/>
<circle class="m0" cx="275.8" cy="557.2" r="4.5"/>
<circle class="m0" cx="306" cy="606" r="4.5"/>
<circle class="m0" cx="336.3" cy="606" r="4.5"/>
<circle class="m0" cx="366.5" cy="606" r="4.5"/>
<circle class="m0" cx="396.8" cy="606" r="4.5"/>
<circle class="m0" cx="427" cy="606" r="4.5"/>
<circle class="m0" cx="457.3" cy="606" r="4.5"/>
<circle class="m0" cx="487.5" cy="606" r="4.5"/>
<circle class="m0" cx="517.8" cy="606" r="4.5"/>
<circle class="m0" cx="548" cy="606" r="4.5"/>
<path class="s1" d="M64.0 434.8L94.3 459.3L124.5 459.3L154.8 459.3L185.0 483.7L215.3 459.3L245.5 459.3L275.8 532.7L306.0 606.0L336.3 606.0L366.5 606.0L396.8 606.0L427.0 606.0L457.3 606.0L487.5 606.0L517.8 606.0L548.0 606.0"/>
<rect class="m1" x="59.5" y="430.3" width="9" height="9" rx="1"/>
<rect class="m1" x="89.8" y="454.8" width="9" height="9" rx="1"/>
<rect class="m1" x="120" y="454.8" width="9" height="9" rx="1"/>
<rect class="m1" x="150.3" y="454.8" width="9" height="9" rx="1"/>
<rect class="m1" x="180.5" y="479.2" width="9" height="9" rx="1"/>
<rect class="m1" x="210.8" y="454.8" width="9" height="9" rx="1"/>
<rect class="m1" x="241" y="454.8" width="9" height="9" rx="1"/>
<rect class="m1" x="271.3" y="528.2" width="9" height="9" rx="1"/>
<rect class="m1" x="301.5" y="601.5" width="9" height="9" rx="1"/>
<rect class="m1" x="331.8" y="601.5" width="9" height="9" rx="1"/>
<rect class="m1" x="362" y="601.5" width="9" height="9" rx="1"/>
<rect class="m1" x="392.3" y="601.5" width="9" height="9" rx="1"/>
<rect class="m1" x="422.5" y="601.5" width="9" height="9" rx="1"/>
<rect class="m1" x="452.8" y="601.5" width="9" height="9" rx="1"/>
<rect class="m1" x="483" y="601.5" width="9" height="9" rx="1"/>
<rect class="m1" x="513.3" y="601.5" width="9" height="9" rx="1"/>
<rect class="m1" x="543.5" y="601.5" width="9" height="9" rx="1"/>
<path class="s2" d="M64.0 483.7L94.3 508.3L124.5 459.3L154.8 459.3L185.0 483.7L215.3 459.3L245.5 532.7L275.8 532.7L306.0 606.0L336.3 606.0L366.5 606.0L396.8 606.0L427.0 606.0L457.3 606.0L487.5 606.0L517.8 606.0L548.0 606.0"/>
<path class="m2" d="M64 478.2L69.5 488.2L58.5 488.2Z"/>
<path class="m2" d="M94.3 502.8L99.8 512.8L88.8 512.8Z"/>
<path class="m2" d="M124.5 453.8L130 463.8L119 463.8Z"/>
<path class="m2" d="M154.8 453.8L160.3 463.8L149.3 463.8Z"/>
<path class="m2" d="M185 478.2L190.5 488.2L179.5 488.2Z"/>
<path class="m2" d="M215.3 453.8L220.8 463.8L209.8 463.8Z"/>
<path class="m2" d="M245.5 527.2L251 537.2L240 537.2Z"/>
<path class="m2" d="M275.8 527.2L281.3 537.2L270.3 537.2Z"/>
<path class="m2" d="M306 600.5L311.5 610.5L300.5 610.5Z"/>
<path class="m2" d="M336.3 600.5L341.8 610.5L330.8 610.5Z"/>
<path class="m2" d="M366.5 600.5L372 610.5L361 610.5Z"/>
<path class="m2" d="M396.8 600.5L402.3 610.5L391.3 610.5Z"/>
<path class="m2" d="M427 600.5L432.5 610.5L421.5 610.5Z"/>
<path class="m2" d="M457.3 600.5L462.8 610.5L451.8 610.5Z"/>
<path class="m2" d="M487.5 600.5L493 610.5L482 610.5Z"/>
<path class="m2" d="M517.8 600.5L523.3 610.5L512.3 610.5Z"/>
<path class="m2" d="M548 600.5L553.5 610.5L542.5 610.5Z"/>
<path class="s3" d="M64.0 459.3L94.3 483.7L124.5 459.3L154.8 459.3L185.0 459.3L215.3 459.3L245.5 508.3L275.8 532.7L306.0 606.0L336.3 606.0L366.5 606.0L396.8 606.0L427.0 606.0L457.3 606.0L487.5 606.0L517.8 606.0L548.0 606.0"/>
<path class="m3" d="M64 453.8L69.5 459.3L64 464.8L58.5 459.3Z"/>
<path class="m3" d="M94.3 478.2L99.8 483.7L94.3 489.2L88.8 483.7Z"/>
<path class="m3" d="M124.5 453.8L130 459.3L124.5 464.8L119 459.3Z"/>
<path class="m3" d="M154.8 453.8L160.3 459.3L154.8 464.8L149.3 459.3Z"/>
<path class="m3" d="M185 453.8L190.5 459.3L185 464.8L179.5 459.3Z"/>
<path class="m3" d="M215.3 453.8L220.8 459.3L215.3 464.8L209.8 459.3Z"/>
<path class="m3" d="M245.5 502.8L251 508.3L245.5 513.8L240 508.3Z"/>
<path class="m3" d="M275.8 527.2L281.3 532.7L275.8 538.2L270.3 532.7Z"/>
<path class="m3" d="M306 600.5L311.5 606L306 611.5L300.5 606Z"/>
<path class="m3" d="M336.3 600.5L341.8 606L336.3 611.5L330.8 606Z"/>
<path class="m3" d="M366.5 600.5L372 606L366.5 611.5L361 606Z"/>
<path class="m3" d="M396.8 600.5L402.3 606L396.8 611.5L391.3 606Z"/>
<path class="m3" d="M427 600.5L432.5 606L427 611.5L421.5 606Z"/>
<path class="m3" d="M457.3 600.5L462.8 606L457.3 611.5L451.8 606Z"/>
<path class="m3" d="M487.5 600.5L493 606L487.5 611.5L482 606Z"/>
<path class="m3" d="M517.8 600.5L523.3 606L517.8 611.5L512.3 606Z"/>
<path class="m3" d="M548 600.5L553.5 606L548 611.5L542.5 606Z"/>
<circle class="m0" cx="563" cy="606" r="4.5"/>
<text class="lb" x="573" y="611">Level L</text>
<rect class="m1" x="558.5" y="618.5" width="9" height="9" rx="1"/>
<text class="lb" x="573" y="628">Level M</text>
<path class="m2" d="M563 634.5L568.5 644.5L557.5 644.5Z"/>
<text class="lb" x="573" y="645">Level Q</text>
<path class="m3" d="M563 651.5L568.5 657L563 662.5L557.5 657Z"/>
<text class="lb" x="573" y="662">Level H</text>
<text class="pt" x="64" y="666">zxing-cpp</text>
<line class="g" x1="64" x2="548" y1="896" y2="896"/>
<text class="ax" x="56" y="901" text-anchor="end">0%</text>
<line class="g" x1="64" x2="548" y1="841" y2="841"/>
<text class="ax" x="56" y="846" text-anchor="end">25%</text>
<line class="g" x1="64" x2="548" y1="786" y2="786"/>
<text class="ax" x="56" y="791" text-anchor="end">50%</text>
<line class="g" x1="64" x2="548" y1="731" y2="731"/>
<text class="ax" x="56" y="736" text-anchor="end">75%</text>
<line class="g" x1="64" x2="548" y1="676" y2="676"/>
<text class="ax" x="56" y="681" text-anchor="end">100%</text>
<line class="a" x1="64" x2="548" y1="896" y2="896"/>
<text class="ax" x="64" y="916" text-anchor="middle">0</text>
<text class="ax" x="185" y="916" text-anchor="middle">20</text>
<text class="ax" x="306" y="916" text-anchor="middle">40</text>
<text class="ax" x="427" y="916" text-anchor="middle">60</text>
<text class="ax" x="548" y="916" text-anchor="middle">80</text>
<text class="ax" x="306" y="936" text-anchor="middle">yaw in the scene (degrees)</text>
<path class="s0" d="M64.0 676.0L94.3 676.0L124.5 676.0L154.8 676.0L185.0 676.0L215.3 676.0L245.5 676.0L275.8 676.0L306.0 676.0L336.3 676.0L366.5 676.0L396.8 822.7L427.0 896.0L457.3 896.0L487.5 896.0L517.8 896.0L548.0 896.0"/>
<circle class="m0" cx="64" cy="676" r="4.5"/>
<circle class="m0" cx="94.3" cy="676" r="4.5"/>
<circle class="m0" cx="124.5" cy="676" r="4.5"/>
<circle class="m0" cx="154.8" cy="676" r="4.5"/>
<circle class="m0" cx="185" cy="676" r="4.5"/>
<circle class="m0" cx="215.3" cy="676" r="4.5"/>
<circle class="m0" cx="245.5" cy="676" r="4.5"/>
<circle class="m0" cx="275.8" cy="676" r="4.5"/>
<circle class="m0" cx="306" cy="676" r="4.5"/>
<circle class="m0" cx="336.3" cy="676" r="4.5"/>
<circle class="m0" cx="366.5" cy="676" r="4.5"/>
<circle class="m0" cx="396.8" cy="822.7" r="4.5"/>
<circle class="m0" cx="427" cy="896" r="4.5"/>
<circle class="m0" cx="457.3" cy="896" r="4.5"/>
<circle class="m0" cx="487.5" cy="896" r="4.5"/>
<circle class="m0" cx="517.8" cy="896" r="4.5"/>
<circle class="m0" cx="548" cy="896" r="4.5"/>
<path class="s1" d="M64.0 676.0L94.3 676.0L124.5 676.0L154.8 676.0L185.0 676.0L215.3 676.0L245.5 676.0L275.8 676.0L306.0 676.0L336.3 676.0L366.5 700.4L396.8 798.3L427.0 896.0L457.3 896.0L487.5 896.0L517.8 896.0L548.0 896.0"/>
<rect class="m1" x="59.5" y="671.5" width="9" height="9" rx="1"/>
<rect class="m1" x="89.8" y="671.5" width="9" height="9" rx="1"/>
<rect class="m1" x="120" y="671.5" width="9" height="9" rx="1"/>
<rect class="m1" x="150.3" y="671.5" width="9" height="9" rx="1"/>
<rect class="m1" x="180.5" y="671.5" width="9" height="9" rx="1"/>
<rect class="m1" x="210.8" y="671.5" width="9" height="9" rx="1"/>
<rect class="m1" x="241" y="671.5" width="9" height="9" rx="1"/>
<rect class="m1" x="271.3" y="671.5" width="9" height="9" rx="1"/>
<rect class="m1" x="301.5" y="671.5" width="9" height="9" rx="1"/>
<rect class="m1" x="331.8" y="671.5" width="9" height="9" rx="1"/>
<rect class="m1" x="362" y="695.9" width="9" height="9" rx="1"/>
<rect class="m1" x="392.3" y="793.8" width="9" height="9" rx="1"/>
<rect class="m1" x="422.5" y="891.5" width="9" height="9" rx="1"/>
<rect class="m1" x="452.8" y="891.5" width="9" height="9" rx="1"/>
<rect class="m1" x="483" y="891.5" width="9" height="9" rx="1"/>
<rect class="m1" x="513.3" y="891.5" width="9" height="9" rx="1"/>
<rect class="m1" x="543.5" y="891.5" width="9" height="9" rx="1"/>
<path class="s2" d="M64.0 676.0L94.3 676.0L124.5 676.0L154.8 676.0L185.0 676.0L215.3 676.0L245.5 676.0L275.8 676.0L306.0 676.0L336.3 676.0L366.5 676.0L396.8 749.3L427.0 896.0L457.3 896.0L487.5 896.0L517.8 896.0L548.0 896.0"/>
<path class="m2" d="M64 670.5L69.5 680.5L58.5 680.5Z"/>
<path class="m2" d="M94.3 670.5L99.8 680.5L88.8 680.5Z"/>
<path class="m2" d="M124.5 670.5L130 680.5L119 680.5Z"/>
<path class="m2" d="M154.8 670.5L160.3 680.5L149.3 680.5Z"/>
<path class="m2" d="M185 670.5L190.5 680.5L179.5 680.5Z"/>
<path class="m2" d="M215.3 670.5L220.8 680.5L209.8 680.5Z"/>
<path class="m2" d="M245.5 670.5L251 680.5L240 680.5Z"/>
<path class="m2" d="M275.8 670.5L281.3 680.5L270.3 680.5Z"/>
<path class="m2" d="M306 670.5L311.5 680.5L300.5 680.5Z"/>
<path class="m2" d="M336.3 670.5L341.8 680.5L330.8 680.5Z"/>
<path class="m2" d="M366.5 670.5L372 680.5L361 680.5Z"/>
<path class="m2" d="M396.8 743.8L402.3 753.8L391.3 753.8Z"/>
<path class="m2" d="M427 890.5L432.5 900.5L421.5 900.5Z"/>
<path class="m2" d="M457.3 890.5L462.8 900.5L451.8 900.5Z"/>
<path class="m2" d="M487.5 890.5L493 900.5L482 900.5Z"/>
<path class="m2" d="M517.8 890.5L523.3 900.5L512.3 900.5Z"/>
<path class="m2" d="M548 890.5L553.5 900.5L542.5 900.5Z"/>
<path class="s3" d="M64.0 676.0L94.3 676.0L124.5 676.0L154.8 676.0L185.0 676.0L215.3 676.0L245.5 676.0L275.8 676.0L306.0 676.0L336.3 676.0L366.5 676.0L396.8 847.2L427.0 896.0L457.3 896.0L487.5 896.0L517.8 896.0L548.0 896.0"/>
<path class="m3" d="M64 670.5L69.5 676L64 681.5L58.5 676Z"/>
<path class="m3" d="M94.3 670.5L99.8 676L94.3 681.5L88.8 676Z"/>
<path class="m3" d="M124.5 670.5L130 676L124.5 681.5L119 676Z"/>
<path class="m3" d="M154.8 670.5L160.3 676L154.8 681.5L149.3 676Z"/>
<path class="m3" d="M185 670.5L190.5 676L185 681.5L179.5 676Z"/>
<path class="m3" d="M215.3 670.5L220.8 676L215.3 681.5L209.8 676Z"/>
<path class="m3" d="M245.5 670.5L251 676L245.5 681.5L240 676Z"/>
<path class="m3" d="M275.8 670.5L281.3 676L275.8 681.5L270.3 676Z"/>
<path class="m3" d="M306 670.5L311.5 676L306 681.5L300.5 676Z"/>
<path class="m3" d="M336.3 670.5L341.8 676L336.3 681.5L330.8 676Z"/>
<path class="m3" d="M366.5 670.5L372 676L366.5 681.5L361 676Z"/>
<path class="m3" d="M396.8 841.7L402.3 847.2L396.8 852.7L391.3 847.2Z"/>
<path class="m3" d="M427 890.5L432.5 896L427 901.5L421.5 896Z"/>
<path class="m3" d="M457.3 890.5L462.8 896L457.3 901.5L451.8 896Z"/>
<path class="m3" d="M487.5 890.5L493 896L487.5 901.5L482 896Z"/>
<path class="m3" d="M517.8 890.5L523.3 896L517.8 901.5L512.3 896Z"/>
<path class="m3" d="M548 890.5L553.5 896L548 901.5L542.5 896Z"/>
<circle class="m0" cx="563" cy="896" r="4.5"/>
<text class="lb" x="573" y="901">Level L</text>
<rect class="m1" x="558.5" y="908.5" width="9" height="9" rx="1"/>
<text class="lb" x="573" y="918">Level M</text>
<path class="m2" d="M563 924.5L568.5 934.5L557.5 934.5Z"/>
<text class="lb" x="573" y="935">Level Q</text>
<path class="m3" d="M563 941.5L568.5 947L563 952.5L557.5 947Z"/>
<text class="lb" x="573" y="952">Level H</text>
</svg>
